<?xml version="1.0" standalone="no"?>
<!DOCTYPE svg PUBLIC "-//W3C//DTD SVG 20010904//EN"
 "http://www.w3.org/TR/2001/REC-SVG-20010904/DTD/svg10.dtd">
<svg version="1.0" xmlns="http://www.w3.org/2000/svg"
 width="1518.000000pt" height="2266.000000pt" viewBox="0 0 1518.000000 2266.000000"
 preserveAspectRatio="xMidYMid meet">

<g transform="translate(0.000000,2266.000000) scale(0.100000,-0.100000)"
fill="#000000" stroke="none">
<path d="M6817 19838 c-3 -7 -2 -186 1 -398 l5 -385 -114 -116 c-110 -113
-247 -258 -358 -382 l-53 -60 6 -181 c10 -268 2 -244 119 -363 78 -80 103
-100 114 -92 10 9 12 76 6 353 l-6 342 138 149 c76 83 188 201 249 263 61 62
117 124 125 139 12 23 12 80 4 374 -6 191 -13 352 -17 358 -10 16 -213 15
-219 -1z"/>
<path d="M7164 19829 c-3 -6 -5 -181 -3 -388 l4 -378 -135 -144 c-74 -79 -189
-201 -257 -270 l-123 -126 1 -224 c0 -123 4 -304 8 -401 l7 -178 34 -36 c19
-19 67 -61 105 -92 39 -31 73 -61 77 -66 18 -26 20 88 10 532 -10 414 -10 487
2 504 8 11 52 59 98 107 46 47 135 142 198 211 63 69 132 144 155 168 22 24
43 51 46 60 10 24 -2 674 -12 693 -14 27 -200 51 -215 28z"/>
<path d="M6630 19821 c-28 -8 -26 16 -33 -421 -2 -149 -6 -183 -23 -225 -31
-76 -91 -165 -170 -252 -40 -43 -98 -107 -129 -143 -32 -36 -92 -101 -134
-145 -89 -93 -155 -172 -164 -197 -11 -31 180 -237 205 -222 5 4 8 73 7 170
-3 182 -9 162 76 249 159 165 330 342 384 398 l63 67 -7 348 c-4 191 -11 355
-16 365 -10 18 -19 19 -59 8z"/>
<path d="M6335 19765 c-66 -18 -145 -42 -175 -53 -30 -12 -74 -28 -97 -36
-240 -88 -526 -272 -786 -508 -93 -85 -110 -112 -99 -165 8 -36 10 -38 50 -40
61 -2 174 -48 240 -98 31 -24 104 -90 162 -147 129 -127 238 -218 262 -218 17
0 219 198 468 457 146 152 151 158 176 239 27 83 30 167 17 452 l-6 152 -46
-1 c-25 0 -100 -16 -166 -34z"/>
<path d="M7515 19421 l7 -359 -247 -255 c-135 -140 -253 -264 -262 -276 -12
-19 -15 -75 -14 -383 1 -199 3 -364 5 -367 2 -3 7 -91 11 -195 4 -104 11 -200
15 -212 14 -36 109 -100 182 -124 66 -21 73 -21 595 -15 290 4 607 7 704 8
132 2 180 5 192 16 15 12 17 42 17 245 0 127 -5 287 -11 356 -6 69 -11 385
-12 702 l-2 577 -30 31 c-47 50 -234 203 -295 241 -268 170 -543 294 -782 353
-36 9 -70 16 -74 16 -4 0 -3 -162 1 -359z m925 -1521 c23 -23 24 -33 10 -61
-21 -38 -90 -16 -90 29 0 52 43 69 80 32z m4 -169 c25 -28 17 -64 -17 -75 -35
-13 -61 2 -65 36 -6 50 49 76 82 39z m158 2 c46 -42 -4 -104 -57 -69 -41 27
-29 86 19 86 11 0 28 -7 38 -17z m-154 -165 c7 -7 12 -24 12 -38 0 -32 -17
-50 -46 -50 -44 0 -72 58 -42 88 7 7 24 12 38 12 14 0 31 -5 38 -12z m171 -20
c14 -24 14 -28 -3 -47 -23 -25 -53 -27 -78 -4 -22 20 -23 46 -2 68 24 23 66
15 83 -17z m-167 -155 c43 -39 -4 -109 -57 -85 -33 15 -43 57 -20 82 22 24 52
26 77 3z m164 -8 c24 -37 6 -75 -36 -75 -40 0 -68 40 -52 75 16 35 65 35 88 0z"/>
<path d="M7945 19700 c-3 -5 -2 -10 4 -10 5 0 13 5 16 10 3 6 2 10 -4 10 -5 0
-13 -4 -16 -10z"/>
<path d="M7980 19691 c0 -17 18 -21 24 -6 3 9 0 15 -9 15 -8 0 -15 -4 -15 -9z"/>
<path d="M8066 19653 c-13 -14 -3 -23 69 -57 41 -20 100 -56 132 -79 32 -24
71 -49 88 -57 16 -8 36 -21 45 -28 8 -8 46 -36 85 -64 84 -59 328 -294 375
-360 18 -27 37 -48 42 -48 4 0 8 -6 8 -13 0 -7 8 -20 18 -28 9 -9 26 -28 36
-43 11 -15 35 -43 54 -63 31 -33 78 -121 69 -129 -2 -2 -17 15 -33 37 -35 50
-72 94 -101 123 -11 12 -23 30 -25 41 -3 19 -15 33 -121 143 -75 77 -92 80
-83 15 10 -82 15 -189 20 -448 7 -303 15 -460 26 -500 5 -16 9 -79 8 -140 -3
-373 2 -666 12 -685 9 -17 21 -20 70 -20 51 0 61 3 71 22 12 22 15 329 4 393
-9 49 -13 1095 -4 1095 14 0 20 -78 24 -355 3 -154 7 -293 9 -310 10 -70 18
-223 18 -323 0 -59 3 -192 5 -296 5 -182 6 -190 29 -213 13 -13 35 -23 52 -23
16 0 32 -3 36 -7 4 -5 11 -8 14 -8 44 -4 146 -74 252 -174 41 -39 75 -71 76
-71 1 0 25 -16 54 -35 29 -19 58 -35 66 -35 8 0 14 -4 14 -10 0 -13 -15 -13
-38 -1 -20 11 -51 23 -70 27 -8 1 -15 4 -17 6 -2 2 -44 41 -93 88 -49 47 -96
90 -103 95 -64 48 -206 88 -237 68 -14 -9 -16 -24 -14 -79 3 -76 13 -94 51
-94 61 0 211 -74 211 -104 0 -12 -35 -5 -78 16 -48 23 -125 34 -165 24 -23 -5
-25 -11 -26 -62 0 -71 22 -114 59 -114 29 0 130 -41 130 -54 0 -4 -7 -5 -16
-2 -9 3 -46 9 -84 12 -77 8 -84 2 -99 -79 -6 -29 -10 -37 -15 -24 -3 9 -9 25
-13 35 -3 9 -5 21 -4 25 0 4 -3 17 -9 27 -9 17 -21 20 -79 20 -76 0 -85 -6
-96 -60 -4 -19 -13 -46 -21 -60 -12 -24 -13 -22 -14 28 0 98 23 92 -323 86
-166 -3 -377 -9 -469 -14 -259 -15 -654 -13 -708 4 -70 22 -122 46 -157 72
-41 31 -43 26 -43 -147 l0 -139 161 -165 162 -165 269 0 c151 0 277 -4 287
-10 15 -8 77 -74 194 -208 26 -31 27 -34 12 -62 l-15 -29 -52 53 c-29 29 -81
79 -115 110 l-63 56 -276 0 -276 0 -121 118 c-67 64 -158 152 -202 194 l-80
77 -6 173 c-4 95 -10 204 -15 242 l-7 69 -98 101 c-62 64 -101 97 -107 91 -5
-6 -7 -143 -4 -327 l5 -317 337 -342 337 -343 270 3 270 2 46 -48 c176 -187
181 -193 140 -193 -10 0 -13 -6 -9 -16 8 -21 1 -16 -122 94 l-93 84 -262 -7
-262 -7 -50 48 c-28 27 -165 159 -305 294 -140 135 -288 277 -328 315 l-72 70
-10 100 c-5 55 -10 229 -10 386 0 158 -3 301 -6 318 -5 23 -29 54 -78 101
-110 105 -144 132 -151 120 -3 -6 -3 -145 1 -309 l7 -300 -28 -33 c-37 -45
-175 -197 -255 -281 -89 -93 -94 -105 -73 -159 9 -24 21 -46 27 -50 7 -5 5 -8
-4 -8 -9 0 -30 14 -48 30 -18 17 -37 30 -41 30 -8 0 -226 -228 -263 -275 -13
-17 -22 -45 -24 -77 -4 -51 -19 -82 -35 -72 -5 3 -9 0 -9 -6 0 -8 -6 -8 -20 0
-18 9 -28 5 -68 -30 -26 -22 -56 -53 -67 -69 -11 -15 -36 -41 -55 -57 -105
-87 -235 -224 -280 -295 -28 -44 -54 -79 -58 -79 -8 0 -10 -126 -1 -134 3 -3
2 -38 -2 -78 -4 -41 -8 -170 -9 -288 -2 -281 -5 -336 -15 -332 -15 7 -23 -21
-14 -46 6 -16 6 -51 0 -96 -13 -89 -29 -263 -31 -336 -2 -68 -12 -81 -57 -74
-32 5 -34 4 -28 -17 6 -19 4 -21 -19 -17 -14 3 -27 1 -28 -4 -6 -16 -126 -22
-152 -8 -20 10 -28 9 -51 -6 -18 -11 -29 -14 -33 -7 -4 6 -20 8 -37 6 -16 -3
-83 -7 -149 -9 -135 -3 -145 -8 -151 -72 -2 -23 -7 -52 -10 -65 -4 -15 -3 -18
3 -9 7 11 10 11 15 -2 4 -9 10 -15 14 -14 21 5 52 -18 98 -73 134 -161 165
-202 165 -219 0 -13 5 -17 14 -14 11 4 13 0 9 -14 -2 -11 0 -23 6 -26 6 -4 11
-14 11 -23 0 -18 -49 25 -241 214 -69 67 -128 123 -132 123 -4 0 -7 -39 -7
-86 l0 -87 47 -56 c63 -74 134 -152 269 -291 l112 -115 6 -225 c9 -300 24
-684 36 -905 10 -189 13 -272 24 -630 3 -121 8 -247 10 -280 6 -85 15 -332 22
-597 l6 -228 -27 -32 c-96 -115 -331 -342 -345 -333 -6 3 -10 -3 -10 -15 0
-12 -5 -30 -10 -40 -11 -20 -5 -191 24 -695 9 -143 20 -348 26 -455 14 -254
36 -612 55 -875 8 -115 19 -289 26 -385 24 -385 54 -774 79 -1025 6 -55 13
-140 15 -190 8 -154 45 -558 54 -598 15 -65 24 -56 17 18 -3 39 -11 192 -17
340 -14 365 -17 433 -29 700 -6 127 -15 345 -20 485 -8 226 -18 442 -35 735
-2 50 -7 155 -9 235 -3 80 -10 224 -16 320 -5 96 -17 342 -25 545 -9 204 -20
456 -24 560 -5 105 -6 195 -2 202 11 20 144 156 206 211 109 97 166 156 192
199 13 23 33 45 44 48 10 4 31 22 46 41 l26 35 -7 137 c-3 75 -11 245 -16 377
-14 361 -29 665 -35 712 -6 40 -13 51 -76 121 -37 41 -28 41 23 1 21 -17 41
-29 44 -26 3 3 -1 185 -10 404 -9 219 -20 549 -26 733 l-11 335 -26 39 c-14
22 -53 65 -86 95 -98 92 -166 177 -160 201 12 45 44 21 309 -235 l62 -60 11
-400 c17 -584 39 -1175 47 -1209 3 -16 19 -58 35 -93 37 -83 47 -145 53 -348
5 -149 9 -173 26 -197 24 -33 24 -35 4 -56 -12 -12 -15 -29 -12 -71 3 -30 10
-57 16 -59 15 -5 16 -29 2 -34 -6 -2 -12 -23 -15 -48 -6 -63 14 -90 64 -90 66
0 71 5 71 71 0 49 -3 60 -21 69 -20 11 -20 12 -2 25 14 10 18 26 17 69 -1 31
-7 62 -13 70 -8 9 -8 21 0 45 7 20 9 69 6 129 -6 110 -22 414 -36 696 -7 137
-13 192 -23 197 -42 26 -42 26 -16 51 l26 23 -9 330 c-10 374 -16 519 -24 554
-4 13 -23 40 -43 60 -20 20 -46 47 -57 60 l-20 24 20 -11 c11 -6 37 -26 57
-45 20 -19 39 -32 42 -29 3 3 6 44 6 91 l0 86 -106 105 c-109 108 -312 338
-332 377 -7 12 -12 64 -12 116 0 90 1 95 22 101 34 8 42 -7 49 -96 l6 -81 160
-156 c89 -86 195 -192 235 -236 l75 -80 11 -103 c7 -56 12 -130 12 -163 0 -38
4 -58 10 -54 6 3 10 15 10 26 0 13 6 19 18 17 11 -2 18 4 20 20 2 12 7 22 12
22 5 0 19 23 31 50 15 34 30 52 46 56 13 4 23 10 23 15 0 5 6 9 14 9 29 0 48
67 45 158 -1 48 2 104 6 125 5 24 3 42 -4 51 -9 10 -8 15 4 20 10 3 15 15 13
32 -2 15 3 29 10 31 6 3 12 -3 12 -14 1 -17 1 -17 15 1 19 25 19 46 0 46 -8 0
-15 7 -15 15 0 8 5 15 12 15 6 0 20 8 30 17 16 14 21 15 28 4 13 -22 23 -195
22 -369 -1 -90 1 -169 5 -175 11 -18 13 -54 17 -297 3 -168 8 -235 19 -264 15
-40 90 -116 113 -116 20 0 37 -38 30 -66 -9 -33 -21 -30 -46 12 -33 52 -99 90
-115 64 -3 -5 -1 -27 4 -47 5 -21 18 -78 27 -128 24 -125 40 -157 84 -168 20
-4 49 -18 65 -31 l28 -23 -21 -21 c-29 -29 -30 -40 -13 -197 18 -174 39 -337
56 -430 9 -49 13 -103 10 -120 -15 -73 -16 -187 -3 -203 8 -10 20 -30 28 -46
8 -16 23 -31 32 -34 29 -7 32 -41 8 -74 -16 -22 -19 -33 -11 -41 6 -6 11 -19
11 -29 0 -15 8 -18 45 -18 38 0 45 -3 45 -20 0 -14 -12 -25 -39 -36 -45 -18
-59 -54 -35 -91 15 -24 58 -31 69 -12 4 6 13 8 20 5 7 -2 17 0 23 6 13 13 27
-14 19 -35 -6 -15 -61 -44 -98 -51 -47 -10 -52 -40 -49 -333 0 -72 -4 -161
-10 -198 -10 -65 -37 -145 -51 -155 -4 -3 -10 -22 -13 -43 -8 -48 -24 -79 -37
-72 -19 12 -30 -7 -12 -20 14 -11 16 -16 6 -26 -18 -19 -16 -26 10 -33 13 -3
27 -18 34 -37 7 -18 16 -28 23 -24 6 4 20 -5 31 -19 22 -28 76 -59 122 -70 40
-10 33 -21 -23 -36 -47 -13 -63 -31 -40 -45 6 -4 8 -10 5 -14 -2 -5 22 -15 55
-22 33 -7 60 -16 60 -19 0 -4 14 -4 31 -2 24 4 30 1 27 -9 -3 -8 -9 -14 -14
-15 -40 -3 -95 -21 -122 -39 l-33 -23 33 -23 c18 -13 44 -29 58 -35 l25 -12
-25 -10 c-104 -41 -101 -39 -89 -69 6 -15 10 -30 9 -33 0 -3 18 -9 42 -14 43
-9 43 -10 13 -17 -16 -3 -44 -7 -61 -8 -50 -2 -134 -41 -134 -62 0 -10 -4 -21
-10 -24 -18 -11 -10 -36 25 -79 19 -24 35 -46 35 -50 0 -8 11 -22 66 -81 53
-57 110 -170 125 -248 7 -34 19 -68 26 -75 18 -18 16 -47 -3 -63 -14 -12 -15
-42 -9 -284 4 -148 8 -333 9 -411 2 -77 6 -146 10 -152 8 -14 53 6 76 33 7 9
26 25 42 36 54 39 29 -4 -43 -71 -38 -37 -73 -79 -77 -93 -4 -14 -5 -113 -2
-219 3 -106 2 -197 -2 -202 -6 -8 -12 54 -23 247 -2 49 -7 92 -10 98 -14 22
-47 4 -114 -66 l-73 -75 7 -406 c4 -224 9 -414 10 -423 2 -9 4 -22 4 -30 1
-19 170 -185 209 -205 17 -9 33 -24 36 -34 3 -9 69 -78 146 -151 77 -73 140
-139 140 -146 0 -7 8 -12 18 -11 25 2 21 -28 -5 -32 -16 -2 -58 26 -149 102
-70 58 -130 106 -135 106 -5 0 -44 35 -87 78 -93 93 -147 136 -161 127 -7 -4
-9 -122 -6 -358 3 -226 1 -332 -5 -297 -11 69 -30 428 -30 571 0 59 -4 119 -9
132 -14 37 -172 171 -183 155 -8 -12 -5 -257 8 -593 10 -245 8 -847 -3 -880
-7 -22 -10 7 -11 115 -1 80 -7 201 -12 270 -6 69 -15 233 -20 365 -12 312 -29
765 -30 790 0 23 -237 255 -260 255 -9 0 -21 -5 -28 -12 -6 -6 -15 -9 -19 -5
-4 4 -1 13 5 19 7 7 12 20 12 31 0 11 -92 111 -223 243 -122 123 -226 233
-231 244 -5 11 -15 20 -21 20 -30 0 -43 64 -49 245 -3 99 -8 205 -10 235 -3
30 -7 118 -11 195 -6 167 -14 321 -20 430 -3 44 -7 163 -10 265 -3 102 -10
259 -15 350 -6 91 -15 311 -21 489 -9 287 -8 325 5 340 53 55 96 115 96 132 0
12 7 19 19 19 20 0 181 167 191 198 3 9 3 94 0 189 -4 146 -8 175 -23 190 -16
17 -17 12 -10 -105 l6 -123 -87 -82 c-75 -71 -90 -91 -95 -128 -1 -3 -13 -4
-29 -1 -20 3 -35 -4 -57 -27 -17 -17 -36 -31 -43 -31 -7 0 -10 -4 -7 -10 3 -5
1 -15 -4 -22 -27 -34 -83 -96 -183 -203 l-28 -31 11 -214 c5 -118 14 -325 20
-460 13 -337 24 -598 43 -985 8 -181 20 -465 26 -630 14 -362 26 -651 40 -965
16 -354 30 -716 39 -995 l8 -250 -29 -28 c-29 -27 -30 -29 -23 -100 3 -40 10
-103 15 -142 11 -89 27 -238 40 -385 6 -63 15 -151 20 -195 5 -44 19 -179 30
-300 11 -121 27 -278 35 -350 8 -71 19 -184 26 -250 6 -66 14 -131 18 -145 l7
-24 325 -1 324 0 7 -45 c3 -25 9 -58 12 -75 21 -111 27 -675 7 -675 -5 0 -12
-45 -14 -102 -1 -9 -4 -15 -8 -13 -3 3 -9 -42 -13 -98 -11 -166 -29 -311 -37
-291 -6 17 -8 16 -18 -9 -6 -16 -11 -34 -11 -41 0 -18 -21 -36 -43 -36 -11 0
-15 -4 -11 -11 9 -16 -58 -1 -71 15 -12 15 -126 11 -156 -5 -11 -5 -24 -7 -29
-4 -6 3 -10 2 -10 -3 0 -13 -108 -25 -212 -24 -85 1 -88 0 -121 -32 -19 -18
-42 -47 -52 -64 -31 -51 -59 -52 -88 -3 -9 15 -19 47 -23 70 -4 24 -13 45 -20
48 -8 3 -13 17 -12 32 1 15 -1 32 -6 39 -4 7 -2 12 3 12 7 0 10 23 10 58 -1
31 -4 47 -6 35 -3 -13 -12 -23 -21 -23 -14 0 -14 2 -3 9 9 6 11 18 7 35 -8 31
-26 35 -26 6 0 -25 -16 -26 -22 -2 -9 31 9 202 22 217 7 8 21 15 31 15 19 0
35 33 23 51 -10 16 -1922 7 -1950 -9 -15 -9 -4 -12 56 -13 l75 -2 -79 -8 c-43
-5 -81 -11 -84 -13 -2 -3 -13 -1 -24 5 -20 11 -62 3 -53 -11 3 -4 -2 -10 -10
-14 -16 -6 -29 7 -18 18 4 4 8 13 9 21 3 21 -33 19 -45 -2 -8 -16 -14 -16 -55
-5 -62 16 -65 16 -76 -13 -6 -16 -15 -23 -24 -19 -18 7 -40 -13 -50 -44 -6
-19 -12 -21 -46 -16 -37 6 -41 4 -57 -25 -13 -23 -25 -31 -45 -31 -16 0 -28 5
-28 10 0 6 -7 10 -15 10 -8 0 -24 18 -35 39 l-20 40 -55 -36 c-32 -21 -55 -43
-55 -53 0 -10 -7 -23 -15 -30 -12 -10 -13 -16 -4 -26 6 -8 8 -14 3 -14 -5 0
-2 -5 6 -10 10 -7 11 -10 2 -10 -11 0 -34 -41 -36 -65 -1 -11 -8 -12 -73 -14
-24 0 -43 -5 -43 -11 0 -5 7 -10 15 -10 21 0 19 -17 -5 -30 -21 -11 -89 -27
-158 -37 -43 -6 -56 -16 -57 -42 0 -17 -96 -51 -124 -44 -15 4 -21 1 -21 -11
0 -9 -4 -24 -9 -34 -5 -9 -14 -33 -20 -52 -10 -34 -10 -33 -5 12 5 46 4 48
-19 48 -14 0 -27 -7 -31 -15 -4 -12 -24 -15 -91 -15 -83 0 -88 -1 -117 -30
-16 -16 -32 -30 -34 -30 -3 0 -17 -14 -31 -30 -28 -33 -60 -39 -70 -13 -8 22
-54 62 -70 63 -7 0 -13 7 -13 15 0 8 -7 15 -15 15 -20 0 -20 39 0 46 9 4 15
20 15 43 0 34 16 101 54 231 9 30 14 70 12 89 -5 32 -30 71 -48 71 -11 0 -54
-43 -51 -52 2 -4 -8 -15 -22 -24 -27 -18 -32 -43 -13 -62 9 -9 7 -12 -10 -12
-13 0 -22 -6 -22 -16 0 -9 -5 -13 -12 -10 -7 3 -21 9 -30 12 -10 4 -18 13 -18
20 0 8 -3 14 -7 14 -9 0 -33 48 -33 66 0 26 -25 33 -90 24 -36 -4 -73 -11 -82
-15 -12 -5 -18 -3 -18 5 0 17 -50 62 -64 57 -6 -2 -12 -13 -14 -25 -4 -24 -22
-30 -22 -7 0 19 -40 56 -53 48 -6 -3 -7 -1 -3 5 5 8 -1 12 -16 12 -19 0 -20 2
-8 11 11 7 12 12 3 15 -7 3 -10 11 -7 18 7 17 -27 23 -91 15 -27 -3 -43 -7
-36 -7 12 -2 12 -5 3 -14 -7 -7 -12 -18 -12 -25 0 -19 34 -93 42 -93 5 0 8 -8
8 -18 0 -10 12 -31 28 -49 75 -84 82 -96 82 -129 0 -22 6 -37 15 -40 8 -4 15
-10 15 -16 0 -14 24 -35 45 -39 19 -4 23 -10 50 -71 9 -21 23 -38 31 -38 8 0
19 -12 24 -26 7 -17 15 -24 25 -20 17 6 19 -3 6 -37 -12 -30 -121 -141 -121
-122 0 8 -6 15 -12 16 -31 2 -65 7 -85 14 -13 4 -23 3 -23 -2 0 -13 -60 -15
-76 -2 -8 6 -26 8 -44 4 -22 -5 -32 -3 -36 9 -3 9 -11 16 -18 16 -6 0 -28 12
-49 26 -23 15 -48 24 -65 22 l-27 -3 -3 -883 -2 -882 7590 0 7590 0 0 1194 c0
1128 -1 1194 -17 1201 -10 4 -484 6 -1053 5 -1028 -1 -1304 -4 -1390 -13 -38
-5 -337 -18 -420 -20 -14 0 -110 5 -215 12 -104 7 -255 16 -335 21 -80 5 -419
9 -755 10 -335 0 -662 3 -726 6 -81 5 -118 3 -123 -5 -4 -6 -2 -11 3 -11 7 0
10 -35 9 -100 0 -55 -5 -100 -10 -100 -5 0 -10 6 -12 13 -2 6 -11 36 -21 65
-16 48 -16 55 -1 92 9 22 15 40 13 41 -1 0 -15 2 -32 4 -66 9 -72 13 -79 54
-5 36 -26 58 -40 44 -3 -4 -6 -25 -6 -47 0 -23 -7 -66 -15 -96 -8 -30 -15 -72
-15 -92 0 -77 -100 -182 -138 -144 -12 12 -18 12 -41 0 -14 -8 -34 -14 -43
-14 -10 0 -18 -4 -18 -9 0 -4 -18 -7 -40 -5 -24 1 -40 -2 -40 -8 0 -6 -3 -8
-6 -5 -4 4 -19 -1 -35 -10 -24 -14 -39 -15 -99 -7 -46 6 -74 6 -80 0 -6 -6
-28 -9 -50 -7 -22 1 -40 -2 -40 -8 0 -5 -19 -14 -42 -18 -33 -7 -45 -15 -60
-44 -12 -23 -36 -46 -68 -63 -63 -34 -84 -26 -99 41 -12 56 -15 266 -6 406 4
54 2 180 -4 280 -11 178 -12 182 -38 202 -26 21 -26 23 -18 106 4 46 6 147 6
223 l-2 139 47 43 c27 26 59 45 78 48 17 3 164 8 326 11 178 4 300 11 307 17
8 6 13 35 13 72 0 34 4 97 9 141 6 44 13 137 17 206 6 124 6 126 33 136 28 10
55 10 105 -1 16 -4 36 -4 43 -1 8 3 101 7 206 9 268 7 296 12 347 67 19 21 37
31 57 31 15 0 33 3 38 7 20 15 64 11 74 -6 7 -13 23 -17 67 -18 l57 0 -2 82
c-2 78 -1 83 18 83 18 0 21 -6 21 -38 l0 -39 77 3 c66 3 78 6 84 23 11 29 73
24 77 -7 4 -28 10 -27 45 4 24 20 27 27 17 39 -10 12 -9 15 4 15 9 0 25 -5 36
-12 23 -15 70 6 71 31 0 12 3 10 8 -4 5 -11 3 -27 -3 -37 -8 -14 -7 -22 7 -35
14 -14 33 -17 90 -16 39 1 66 -1 60 -4 -7 -2 -13 -22 -13 -43 0 -32 6 -42 36
-65 33 -26 41 -27 106 -23 44 4 74 11 79 19 7 11 9 10 10 -3 1 -10 2 -24 3
-30 1 -10 21 -12 74 -9 41 2 72 -1 72 -6 0 -5 40 -10 88 -10 49 0 97 -5 107
-10 11 -6 61 -8 125 -5 82 4 113 1 134 -10 23 -12 38 -13 75 -5 25 6 66 10 91
9 87 -3 114 -2 120 8 4 6 26 5 60 -2 54 -11 201 -17 369 -17 56 0 81 -3 77
-10 -15 -24 107 -26 151 -2 11 5 22 8 25 6 15 -16 199 -27 498 -32 340 -4 443
-5 498 -3 15 1 59 -1 97 -4 83 -5 77 -5 140 -1 28 1 56 -2 64 -9 10 -8 15 -8
18 0 4 11 285 10 303 -1 5 -3 11 -2 13 2 3 5 72 7 154 6 81 -1 158 0 171 2
l22 5 0 5278 0 5278 -90 -1 -90 0 0 -37 c0 -21 5 -38 10 -38 6 0 10 -18 10
-40 0 -22 -4 -40 -10 -40 -5 0 -10 18 -10 40 l0 40 -40 0 -40 0 0 -40 c0 -22
-4 -40 -10 -40 -5 0 -10 -18 -10 -40 0 -22 5 -40 10 -40 6 0 10 -18 10 -40 l0
-40 -69 0 c-39 0 -72 -4 -75 -9 -3 -5 -42 -7 -87 -6 l-81 4 -10 -29 c-6 -19
-15 -27 -24 -23 -8 3 -14 0 -14 -6 0 -6 -9 -11 -20 -11 -19 0 -20 7 -20 118
l0 118 -57 10 c-32 6 -59 7 -61 3 -2 -5 -120 -9 -263 -9 l-259 0 0 -40 c0 -22
5 -40 11 -40 5 0 7 -4 4 -10 -3 -5 -20 -10 -36 -10 -20 0 -28 4 -23 11 5 8
-15 9 -73 4 -68 -6 -81 -4 -86 9 -4 9 -15 16 -25 16 -27 0 -34 11 -15 25 19
14 9 35 -18 35 -10 0 -19 5 -19 10 0 6 -13 10 -29 10 -32 0 -48 14 -30 26 7 4
2 15 -15 31 -15 14 -29 38 -33 54 -3 16 -9 29 -14 29 -5 0 -9 54 -9 120 0 110
-2 120 -18 120 -18 0 -42 37 -42 63 0 7 -10 13 -21 14 -12 1 -24 5 -27 8 -7 6
-3 225 4 236 2 4 -18 12 -44 19 -42 11 -44 13 -24 21 27 10 29 29 2 36 -11 3
-20 11 -20 18 0 7 -6 16 -12 18 -10 4 -10 6 0 6 6 1 12 7 12 15 0 8 -6 17 -12
19 -10 4 -10 6 0 6 24 2 10 241 -14 241 -10 0 -14 -13 -14 -40 0 -22 -4 -40
-10 -40 -11 0 -14 40 -15 160 0 70 -1 75 -22 78 -20 3 -23 9 -23 48 0 38 -3
44 -25 50 -19 5 -25 13 -25 35 0 25 -5 30 -40 39 -35 9 -40 14 -40 40 0 20 -5
30 -15 30 -11 0 -15 11 -15 39 0 22 -7 45 -15 53 -42 38 -43 38 -51 10 -7 -26
-7 -25 -14 13 -5 24 -4 42 2 46 12 8 -38 20 -67 16 -16 -2 -20 4 -20 31 -1 17
4 32 9 32 27 0 -8 12 -45 16 -24 2 -52 7 -62 10 -17 5 -17 7 -1 18 16 12 16
14 -2 24 -18 11 -18 11 -1 12 13 0 17 6 15 23 -3 23 -17 27 -118 28 -62 0 -78
15 -81 72 -3 45 -4 47 -33 47 -43 0 -52 9 -51 50 0 30 -3 35 -25 37 -14 0 -31
1 -38 2 -7 1 -12 9 -11 19 3 30 -2 68 -8 55 -10 -26 -21 -12 -27 35 -12 79
-10 77 -73 77 -32 1 -50 -1 -40 -3 28 -6 19 -22 -13 -22 -31 0 -36 9 -42 75
-3 26 -7 30 -33 30 -35 1 -58 12 -50 25 3 5 -19 9 -48 9 -30 -1 -63 4 -73 9
-10 6 -27 13 -38 16 -14 5 -16 9 -7 19 8 10 7 17 -1 25 -9 9 -9 12 0 12 18 0
15 45 -5 61 -9 8 -18 13 -20 12 -1 -2 -4 -2 -5 -2 -2 1 -23 3 -48 4 -25 2 -48
4 -51 4 -5 1 -17 35 -35 100 -10 38 -39 64 -63 56 -17 -5 -23 -1 -31 20 -5 14
-10 40 -10 56 0 22 -5 29 -20 29 -10 0 -31 12 -47 28 -15 15 -32 26 -38 24 -5
-2 -4 2 3 9 6 7 12 19 12 26 0 21 -21 15 -27 -7 -3 -11 -9 -20 -13 -20 -15 0
-31 30 -29 52 3 16 -7 34 -30 56 -19 17 -39 33 -45 33 -6 1 -16 2 -23 3 -6 0
-21 11 -32 23 -12 12 -27 20 -34 17 -13 -5 -57 38 -57 56 0 6 -6 20 -12 33 -7
12 -13 23 -13 24 0 1 -12 4 -28 8 -24 6 -27 5 -27 -19 0 -35 -18 -33 -22 2 -2
18 -8 26 -18 24 -11 -3 -11 1 3 16 15 16 15 21 4 31 -8 6 -21 9 -30 5 -16 -6
-30 10 -34 40 -5 29 -24 47 -43 41 -11 -4 -20 3 -29 21 -6 14 -23 41 -37 60
-24 31 -30 33 -65 28 l-39 -7 0 51 c0 52 -8 62 -51 62 -12 0 -19 7 -19 18 0
30 -13 34 -27 10 -7 -13 -12 -17 -13 -10 0 6 -8 12 -17 12 -10 0 -25 15 -33
33 -8 17 -19 32 -25 32 -5 0 -15 4 -22 8 -6 4 -18 5 -26 2 -9 -4 -19 4 -27 24
-7 17 -16 31 -21 31 -5 0 -18 15 -29 33 -14 22 -20 27 -20 14 0 -10 -5 -15
-10 -12 -6 4 -8 10 -5 14 2 5 -5 19 -17 32 -14 16 -22 20 -25 12 -3 -7 -9 -13
-14 -13 -13 0 -49 38 -49 51 0 6 -6 9 -13 6 -8 -3 -12 6 -12 27 0 24 -4 30
-17 28 -11 -2 -18 3 -18 13 0 8 -9 15 -20 15 -11 0 -20 -7 -20 -15 0 -8 -7
-15 -16 -15 -17 0 -52 30 -44 39 3 3 -5 7 -18 9 -24 4 -49 24 -68 57 -6 10
-19 23 -30 29 -21 12 -58 48 -71 69 -4 7 -24 25 -44 40 -27 20 -44 26 -70 23
-29 -3 -31 -2 -16 9 28 20 20 35 -20 35 -29 0 -34 3 -25 12 16 16 15 28 -2 28
-8 0 -17 7 -20 16 -4 12 -13 14 -32 10 -20 -5 -27 -3 -31 13 -3 12 -9 18 -14
15 -5 -3 -12 2 -15 11 -4 10 -13 13 -25 10 -15 -5 -19 -1 -19 20 0 18 -7 28
-25 35 -14 5 -25 17 -25 26 0 14 -8 16 -55 11 -49 -5 -56 -3 -66 15 -6 12 -12
35 -13 52 -1 28 -6 33 -51 47 -27 10 -51 22 -53 28 -2 6 -12 11 -22 11 -10 0
-25 11 -34 25 -12 18 -23 24 -36 20 -13 -4 -20 0 -25 15 -4 13 -15 20 -31 20
-14 0 -22 4 -19 10 4 6 -11 10 -39 10 -35 0 -46 4 -50 18 -4 11 -18 25 -31 32
-14 7 -25 19 -25 27 0 7 -6 13 -13 13 -8 0 -36 22 -63 49 -28 28 -72 58 -104
71 -30 13 -59 28 -65 35 -5 6 -22 20 -37 29 -15 10 -25 22 -22 27 3 5 -8 9
-24 9 -16 0 -40 9 -54 19 -13 11 -37 23 -51 26 -15 4 -27 13 -27 21 0 8 -9 14
-20 14 -11 0 -40 16 -65 35 -25 19 -61 37 -79 41 -22 4 -36 13 -39 25 -3 10
-13 19 -22 19 -16 0 -67 20 -138 56 -16 8 -34 14 -40 14 -7 0 -23 6 -37 13
-15 8 -43 17 -64 20 -21 3 -47 14 -58 24 -19 17 -80 28 -92 16z m1073 -1027
c24 -38 26 -46 11 -46 -10 0 -50 58 -50 73 0 18 20 4 39 -27z m62 -109 c5 -12
13 -29 19 -37 5 -8 19 -37 30 -65 33 -77 52 -115 72 -137 10 -12 18 -28 18
-37 0 -9 7 -26 15 -38 15 -21 72 -176 82 -223 4 -14 9 -27 13 -30 11 -7 119
-335 168 -510 73 -257 135 -518 157 -655 9 -55 20 -116 25 -135 5 -19 14 -75
19 -125 5 -49 17 -148 26 -220 8 -71 15 -155 15 -185 0 -30 2 -80 5 -110 4
-49 11 -230 14 -351 1 -36 8 -56 36 -92 31 -41 37 -59 56 -174 34 -208 30
-620 -8 -713 -3 -8 -7 -19 -7 -25 -1 -5 -7 -28 -13 -50 -22 -77 -31 -120 -38
-175 -11 -93 -39 -170 -62 -170 -7 0 -16 -7 -19 -15 -4 -8 -12 -15 -19 -15 -7
0 -26 -7 -41 -15 -16 -8 -37 -15 -46 -15 -10 0 -18 -4 -18 -9 0 -5 -29 -9 -64
-8 -35 1 -70 -4 -78 -10 -17 -13 -51 -13 -60 0 -4 7 -12 6 -22 -2 -13 -11 -19
-11 -30 -2 -10 8 -30 10 -59 6 -24 -4 -61 -2 -81 3 -32 9 -40 8 -57 -9 -11
-11 -33 -19 -52 -19 -25 0 -41 -9 -73 -43 -23 -24 -44 -55 -48 -70 -6 -27 -72
-85 -83 -73 -3 3 -14 -1 -23 -9 -29 -26 -61 9 -73 81 -13 71 -9 328 5 364 6
15 10 130 9 284 -1 259 -4 286 -37 286 -22 0 -27 39 -23 204 4 154 3 161 -16
164 -38 6 -75 25 -75 37 0 8 -6 16 -12 18 -8 3 -6 6 5 6 9 1 17 5 17 10 0 5
22 12 50 16 47 6 50 9 60 43 11 38 26 59 73 101 37 33 130 41 544 41 331 1
343 2 353 21 15 27 2 87 -21 100 -25 13 -24 39 1 46 18 5 19 12 14 122 -9 203
-33 441 -59 586 -43 243 -65 346 -76 360 -5 6 -11 31 -14 55 -3 25 -12 68 -19
95 -8 28 -19 75 -25 105 -13 60 -15 70 -62 245 -65 248 -219 725 -260 807 -5
10 -9 25 -9 33 0 8 -4 23 -9 33 -18 32 -51 133 -51 154 0 12 -3 18 -7 15 -8
-9 -63 90 -63 115 0 10 -4 18 -10 18 -5 0 -10 7 -10 16 0 20 19 8 31 -19z
m119 -1663 c0 -2 -9 0 -20 6 -11 6 -20 13 -20 16 0 2 9 0 20 -6 11 -6 20 -13
20 -16z m-331 -266 c0 -7 -4 -22 -9 -33 -7 -17 -9 -15 -9 13 -1 17 4 32 9 32
6 0 10 -6 9 -12z m3336 -8 c-3 -5 -12 -7 -20 -3 -21 7 -19 13 6 13 11 0 18 -4
14 -10z m-4178 -725 c0 -8 -4 -15 -9 -15 -4 0 -8 7 -8 15 0 8 4 15 8 15 5 0 9
-7 9 -15z m993 -70 c176 -8 242 -14 235 -25 -9 -14 12 -21 42 -14 25 7 26 8 8
16 -14 6 -11 7 10 2 17 -3 34 -9 39 -14 13 -12 -51 -36 -104 -38 -25 -2 -94
-7 -155 -13 -111 -11 -720 -13 -737 -3 -5 3 -46 6 -91 6 -72 1 -76 2 -30 7 53
7 84 21 45 21 -12 0 -22 4 -22 9 0 12 29 23 42 15 6 -4 13 -1 17 5 5 8 77 13
227 17 120 4 235 10 254 14 19 5 46 7 60 4 14 -2 86 -6 160 -9z m-847 -52 c-7
-2 -19 -2 -25 0 -7 3 -2 5 12 5 14 0 19 -2 13 -5z m-127 -199 c-3 -6 1 -17 7
-24 10 -10 8 -12 -6 -6 -12 4 -17 2 -15 -6 3 -7 16 -15 31 -19 21 -6 27 -4 27
9 1 15 2 15 11 -1 5 -9 7 -22 3 -29 -5 -7 -3 -8 5 -3 8 4 26 -2 44 -16 31 -23
37 -24 198 -21 131 3 169 1 175 -10 15 -24 13 -38 -9 -53 -17 -12 -54 -15
-169 -15 -148 0 -189 7 -219 38 -9 9 -30 30 -48 45 -17 15 -29 32 -26 37 4 6
1 10 -6 10 -14 0 -38 30 -39 48 0 7 5 10 10 7 16 -10 12 11 -5 25 -13 10 -15
9 -16 -11 l0 -24 -10 24 c-7 17 -6 27 2 32 15 9 60 -22 55 -37z m-1806 -99 c0
-8 -6 -15 -12 -18 -21 -7 -38 4 -38 23 0 10 6 20 13 23 15 5 37 -11 37 -28z
m-100 -256 c0 -12 -37 -12 -45 0 -3 5 3 11 12 13 21 5 33 0 33 -13z m-406
-820 c24 -11 24 -13 8 -35 -9 -13 -22 -24 -28 -24 -22 0 -35 -81 -25 -160 5
-41 7 -118 5 -170 -2 -52 -6 -174 -9 -270 -3 -96 -9 -184 -12 -194 -5 -19 -6
-19 -16 -1 -11 20 -18 70 -36 255 -29 280 -29 284 -15 385 20 155 19 181 -13
212 l-28 26 72 -7 c40 -3 83 -11 97 -17z m7736 -69 c0 -5 -4 -10 -10 -10 -5 0
-10 5 -10 10 0 6 5 10 10 10 6 0 10 -4 10 -10z m153 -77 c-13 -2 -33 -2 -45 0
-13 2 -3 4 22 4 25 0 35 -2 23 -4z m697 -73 c0 -22 -4 -40 -10 -40 -5 0 -10
18 -10 40 0 22 5 40 10 40 6 0 10 -18 10 -40z m688 33 c-15 -2 -42 -2 -60 0
-18 2 -6 4 27 4 33 0 48 -2 33 -4z m14 -42 c-6 -3 -32 -4 -59 -2 l-48 5 45 6
c48 6 79 2 62 -9z m-1282 5 c0 -3 -4 -8 -10 -11 -5 -3 -10 -1 -10 4 0 6 5 11
10 11 6 0 10 -2 10 -4z m498 -69 c3 -38 7 -46 25 -50 12 -2 -16 -4 -63 -4 -47
0 -75 2 -62 4 18 4 22 11 22 44 0 32 3 39 19 39 11 0 23 5 26 11 14 22 30 1
33 -44z m-410 33 c7 0 10 -4 7 -10 -10 -16 -52 -12 -59 6 -5 13 -2 15 16 10
13 -3 29 -6 36 -6z m115 -7 c-13 -2 -33 -2 -45 0 -13 2 -3 4 22 4 25 0 35 -2
23 -4z m-17 -41 c-21 -2 -42 0 -47 5 -4 4 13 6 39 3 l47 -5 -39 -3z m944 -2
c0 -5 -4 -10 -9 -10 -6 0 -13 5 -16 10 -3 6 1 10 9 10 9 0 16 -4 16 -10z
m-627 -77 c-24 -2 -62 -2 -85 0 -24 2 -5 4 42 4 47 0 66 -2 43 -4z m257 -73
c0 -33 -3 -40 -20 -40 -17 0 -20 7 -20 40 0 33 3 40 20 40 17 0 20 -7 20 -40z
m-4678 -52 c1 -46 3 -108 3 -138 1 -30 4 -165 8 -300 4 -135 9 -362 12 -505 3
-143 7 -388 10 -545 4 -210 19 -2130 18 -2320 0 -14 -3 -160 -7 -325 -4 -165
-8 -490 -10 -723 -2 -284 -6 -426 -14 -434 -18 -18 -25 52 -20 217 2 55 3 680
3 1388 0 1115 -2 1289 -15 1297 -10 6 -18 3 -28 -11 -7 -11 -18 -16 -24 -13
-6 4 -8 2 -4 -4 10 -16 -13 -26 -29 -12 -10 9 -16 7 -24 -7 -6 -10 -10 -13
-11 -8 0 21 17 36 34 29 15 -6 17 -3 12 12 -4 13 5 31 30 59 20 22 43 54 50
72 18 42 19 203 2 225 -8 9 -36 18 -67 21 -30 4 -61 13 -70 20 -9 8 -23 17
-31 20 -8 3 10 6 41 6 31 1 73 8 93 16 l36 15 0 110 c0 102 -1 110 -22 121
-12 6 -41 9 -67 6 -52 -6 -101 1 -101 14 0 5 10 9 23 10 20 0 21 1 2 8 -18 7
-17 8 5 14 14 3 48 9 76 13 28 3 57 10 63 14 9 5 12 72 11 250 0 133 -2 246
-5 249 -2 4 -7 219 -10 478 -4 260 -10 509 -14 555 -8 96 4 188 25 188 11 0
14 -19 16 -82z m4558 42 c0 -5 -2 -10 -4 -10 -3 0 -8 5 -11 10 -3 6 -1 10 4
10 6 0 11 -4 11 -10z m330 0 c0 -5 -4 -10 -9 -10 -6 0 -13 5 -16 10 -3 6 1 10
9 10 9 0 16 -4 16 -10z m-6130 -104 c0 -9 -30 -14 -35 -6 -4 6 3 10 14 10 12
0 21 -2 21 -4z m6083 -13 c-13 -2 -33 -2 -45 0 -13 2 -3 4 22 4 25 0 35 -2 23
-4z m47 -42 c0 -5 -21 -6 -47 -4 -71 7 -75 11 -10 12 31 1 57 -3 57 -8z
m-10230 -231 c0 -5 -4 -10 -10 -10 -5 0 -10 5 -10 10 0 6 5 10 10 10 6 0 10
-4 10 -10z m4878 -1367 c-3 -26 -5 -27 -78 -30 -41 -2 -82 -6 -90 -10 -28 -11
-233 -24 -523 -31 l-288 -7 -92 -95 c-51 -52 -153 -160 -227 -240 -182 -196
-369 -390 -460 -475 -41 -38 -138 -135 -216 -214 l-142 -143 -6 -59 c-4 -32
-4 -85 -1 -116 3 -32 10 -238 15 -458 6 -220 17 -672 25 -1005 9 -333 20 -906
26 -1275 6 -368 13 -733 15 -810 3 -103 1 -136 -7 -125 -8 11 -9 -2 -3 -50 18
-155 3 -605 -20 -627 -5 -5 -7 9 -4 29 2 20 0 34 -4 32 -4 -3 -8 41 -8 98 0
76 4 109 15 124 20 27 20 54 -1 28 -14 -18 -15 -15 -10 38 2 31 1 58 -4 60 -4
2 -10 131 -14 288 -4 157 -11 418 -16 580 -5 162 -12 423 -15 580 -3 157 -10
362 -15 455 -10 177 -13 332 -30 1305 -6 322 -12 655 -15 741 -4 185 -14 164
147 328 63 64 150 157 193 206 196 221 812 841 852 856 48 18 491 44 831 47
l173 2 -3 -27z m227 17 c3 -5 -2 -10 -12 -10 -15 0 -16 -2 -3 -10 13 -9 13
-10 0 -10 -8 0 -21 9 -28 20 -11 18 -10 20 12 20 14 0 28 -4 31 -10z m-2905
-309 c-12 -24 -29 -35 -38 -26 -4 4 4 15 17 26 29 24 34 24 21 0z m2688 -13
c-7 -13 -14 -25 -16 -28 -11 -16 -388 -49 -690 -59 l-282 -9 -93 -99 c-51 -54
-126 -134 -167 -178 -61 -66 -371 -390 -514 -537 l-36 -37 5 -438 c3 -241 8
-458 11 -483 12 -113 36 -2064 26 -2141 -4 -26 -32 -37 -32 -12 0 8 4 12 9 9
8 -6 3 233 -5 243 -2 2 -4 -41 -4 -97 0 -56 -4 -104 -10 -107 -6 -4 -10 28
-11 87 0 51 -2 109 -4 128 -7 62 -23 677 -45 1710 -18 878 -20 1113 -7 1137 7
12 43 56 80 97 97 107 747 765 766 776 37 19 552 52 768 49 95 -2 175 0 179 4
4 4 25 7 46 7 37 0 38 -1 26 -22z m-2748 -52 c0 -10 -51 -59 -55 -54 -7 6 36
58 48 58 4 0 7 -2 7 -4z m-203 -219 c-19 -23 -65 -73 -101 -112 -37 -38 -79
-92 -94 -120 -26 -50 -26 -51 -25 -260 2 -335 11 -722 28 -1115 8 -201 15
-372 15 -381 0 -9 12 -33 26 -54 24 -37 25 -40 11 -70 -13 -27 -13 -36 -1 -64
18 -43 18 -68 -1 -78 -22 -13 -25 -95 -3 -91 6 2 14 -5 16 -14 2 -11 -2 -18
-12 -18 -20 0 -19 20 -17 -340 2 -293 10 -388 38 -421 7 -8 13 -22 13 -30 0
-26 72 -118 123 -157 29 -21 85 -69 125 -105 39 -37 78 -67 86 -67 15 0 48 26
127 100 54 51 115 87 127 76 4 -5 -4 -15 -18 -24 -14 -9 -62 -52 -107 -98 -66
-65 -81 -86 -78 -105 3 -13 33 -51 67 -86 34 -35 58 -63 52 -63 -6 0 -42 25
-81 55 -39 30 -79 55 -88 55 -9 0 -31 -15 -49 -32 -18 -18 -55 -52 -82 -75
-27 -22 -59 -51 -71 -62 -12 -12 -26 -21 -30 -21 -4 0 -37 -32 -73 -71 -65
-71 -120 -118 -120 -102 0 4 25 33 55 63 63 63 126 127 244 252 68 72 80 91
72 106 -5 10 -40 47 -78 82 -82 78 -197 200 -240 255 -41 54 -50 101 -63 360
-6 121 -15 243 -21 270 -6 28 -10 106 -10 175 0 72 -4 129 -10 137 -8 8 -7 28
0 63 9 44 9 56 -6 80 -14 24 -15 33 -5 52 8 14 13 68 14 133 3 211 -14 871
-24 955 -10 92 -16 232 -16 388 0 29 -5 58 -10 65 -7 8 -6 25 4 52 7 22 14 51
14 64 0 14 4 38 9 55 5 17 15 51 22 75 16 55 93 158 183 243 39 37 76 71 81
76 6 6 11 6 13 0 2 -5 -12 -28 -31 -51z m3263 -171 c0 -3 -4 -8 -10 -11 -5 -3
-10 -1 -10 4 0 6 5 11 10 11 6 0 10 -2 10 -4z m-550 -90 c153 -1 165 -2 162
-19 -3 -16 2 -17 35 -11 21 4 36 4 33 1 -9 -9 -174 -36 -290 -47 -63 -6 -144
-15 -180 -21 -36 -6 -150 -10 -255 -9 -104 0 -253 -4 -330 -9 l-140 -10 -133
-138 -133 -138 5 -345 c3 -190 10 -577 15 -860 8 -432 15 -811 26 -1440 1 -52
3 -302 4 -555 2 -253 7 -541 12 -640 7 -133 13 -765 9 -892 -1 -34 -229 -241
-250 -228 -5 3 -10 1 -10 -4 0 -6 -6 -11 -14 -11 -37 0 9 70 127 194 l68 71
-6 355 c-4 195 -6 384 -5 420 4 148 -23 1326 -32 1336 -5 7 -4 23 2 39 6 16 8
47 6 69 -3 23 -8 205 -11 406 -3 201 -10 568 -15 815 -5 248 -12 641 -16 875
l-6 425 161 160 160 160 63 6 c35 4 109 7 164 8 127 1 479 29 519 41 17 4 44
6 60 2 17 -3 104 -6 195 -6z m-4400 -61 c0 -8 -4 -15 -10 -15 -5 0 -10 7 -10
15 0 8 5 15 10 15 6 0 10 -7 10 -15z m1280 -464 c0 -12 -20 -25 -27 -18 -7 7
6 27 18 27 5 0 9 -4 9 -9z m-1263 -93 c-3 -7 -5 -2 -5 12 0 14 2 19 5 13 2 -7
2 -19 0 -25z m4300 -115 c44 -93 83 -188 83 -202 0 -21 -32 -18 -59 5 -27 22
-36 24 -78 19 -70 -10 -80 -14 -86 -34 -5 -19 -62 -39 -75 -27 -6 6 8 54 33
111 8 17 28 66 45 110 36 93 45 105 74 105 17 0 30 -18 63 -87z m-507 -73 l5
-125 63 -3 c52 -2 62 -6 62 -21 0 -15 -12 -19 -82 -24 -54 -4 -86 -3 -95 4
-10 9 -13 47 -13 149 0 75 3 140 7 144 4 4 16 6 28 4 19 -3 20 -12 25 -128z
m-3780 32 c0 -7 -4 -10 -10 -7 -5 3 -10 16 -10 28 0 18 2 19 10 7 5 -8 10 -21
10 -28z m4324 -542 c29 -20 38 -35 47 -76 14 -62 2 -108 -39 -147 -34 -33
-130 -67 -187 -67 l-42 0 -5 153 c-3 83 -3 156 0 161 2 4 46 6 97 4 78 -3 98
-8 129 -28z m-382 -20 c3 -17 6 -81 7 -144 2 -104 1 -115 -17 -125 -24 -13
-30 -8 -103 79 -57 69 -81 91 -88 84 -3 -3 -4 -42 -2 -88 2 -68 -1 -84 -13
-89 -42 -16 -46 -2 -46 149 0 126 2 145 17 151 11 5 28 -8 57 -42 77 -91 114
-130 120 -124 3 3 7 41 7 85 1 43 4 82 6 87 2 4 15 7 27 7 19 0 25 -7 28 -30z
m-2562 -481 c0 -10 -40 -22 -48 -14 -8 8 13 22 33 22 8 0 15 -4 15 -8z m2897
-146 c12 -27 40 -90 63 -141 23 -50 38 -97 35 -102 -10 -16 -30 -12 -50 10
-31 35 -151 23 -166 -16 -6 -18 -16 -24 -37 -24 -16 0 -31 2 -34 6 -10 10 49
171 101 272 31 60 60 58 88 -5z m-332 17 c3 -5 -17 -53 -45 -106 -45 -85 -57
-122 -59 -182 -1 -8 -10 -12 -23 -10 -20 3 -24 11 -28 53 -4 36 -19 72 -53
127 -26 42 -47 84 -47 92 0 43 64 -10 98 -81 9 -18 22 -33 29 -33 8 0 28 29
44 65 34 73 67 102 84 75z m410 -740 c0 -134 -1 -145 -19 -148 -25 -5 -37 16
-31 53 9 48 -5 59 -61 49 l-49 -9 -3 -50 c-4 -55 -15 -75 -43 -75 -33 0 -40
34 -37 177 l3 138 33 3 c31 3 32 2 33 -35 1 -54 5 -82 12 -89 11 -11 82 -15
96 -5 9 6 16 30 17 65 3 63 9 78 32 74 15 -3 17 -21 17 -148z m-427 98 c3 -15
-4 -18 -38 -18 -87 0 -140 -49 -140 -128 0 -30 7 -45 31 -68 27 -26 36 -29 89
-26 63 2 86 -12 55 -35 -25 -18 -99 -17 -140 3 -68 32 -106 134 -74 197 15 29
57 66 94 83 43 19 119 14 123 -8z m1154 -217 c10 15 7 -160 -14 -976 -6 -247
-10 -502 -10 -565 2 -84 -2 -123 -13 -145 -13 -27 -14 -6 -10 210 3 132 9 521
14 865 5 344 10 627 11 630 1 3 5 -4 7 -14 4 -15 7 -16 15 -5z m-2017 -180
c-18 -17 -115 -17 -115 -1 0 6 27 10 62 10 38 0 58 -4 53 -9z m1238 -181 c31
0 37 -3 37 -21 0 -11 -8 -33 -18 -47 -40 -58 -93 -163 -87 -172 3 -6 30 -10
60 -10 54 0 76 -11 53 -27 -21 -13 -119 -32 -170 -32 -44 -1 -48 1 -48 22 0
22 66 139 110 194 11 14 20 30 20 34 0 5 -29 9 -65 9 -62 0 -65 1 -65 24 0 20
6 26 33 29 17 3 48 3 67 1 19 -2 52 -4 73 -4z m-358 -37 c2 -8 -1 -15 -8 -17
-6 -2 -25 -7 -42 -12 l-30 -9 -3 -123 -3 -122 -24 0 -25 0 0 119 c0 128 -1
131 -55 131 -21 0 -43 16 -34 25 2 1 42 6 89 9 46 4 86 8 88 11 9 8 42 0 47
-12z m-1805 -299 c0 -2 -7 -4 -15 -4 -8 0 -15 4 -15 10 0 5 7 7 15 4 8 -4 15
-8 15 -10z m667 -31 c-3 -10 -5 -4 -5 12 0 17 2 24 5 18 2 -7 2 -21 0 -30z
m40 -35 c-2 -13 -4 -5 -4 17 -1 22 1 32 4 23 2 -10 2 -28 0 -40z m0 -90 c-2
-13 -4 -5 -4 17 -1 22 1 32 4 23 2 -10 2 -28 0 -40z m-20 -240 c-2 -13 -4 -5
-4 17 -1 22 1 32 4 23 2 -10 2 -28 0 -40z m228 -416 c11 -9 27 -26 35 -36 14
-18 14 -19 -5 -9 -22 12 -69 63 -57 63 4 -1 16 -8 27 -18z m1998 -278 c-1 -16
-6 -49 -10 -74 l-9 -45 -6 70 c-3 38 -4 74 -1 78 11 18 28 -2 26 -29z m-21
-411 c-3 -252 -11 -345 -13 -147 -1 60 -2 129 -2 154 -2 106 4 240 11 240 4 0
6 -111 4 -247z m-2463 185 c0 -31 -3 -37 -8 -24 -7 18 -3 66 5 66 2 0 4 -19 3
-42z m-29 -220 c0 -38 3 -49 10 -38 5 8 10 33 10 54 0 70 9 32 11 -46 2 -59
-1 -80 -14 -93 -13 -12 -21 -14 -34 -6 -17 10 -17 10 2 11 11 1 14 4 8 7 -16
6 -18 163 -3 163 6 0 10 -24 10 -52z m-30 -148 c18 -10 16 -13 -22 -48 -24
-20 -72 -68 -108 -106 -36 -39 -108 -114 -160 -168 -52 -54 -97 -104 -100
-111 -4 -6 -2 -167 3 -357 5 -190 9 -473 10 -630 l2 -285 -31 -3 c-31 -3 -32
-2 -38 50 -6 55 -20 493 -31 978 l-7 276 65 59 c70 66 211 193 265 240 19 17
53 49 75 73 43 45 48 47 77 32z m207 -86 c-3 -3 -12 -4 -19 -1 -8 3 -5 6 6 6
11 1 17 -2 13 -5z m-47 -74 c0 -5 -2 -10 -4 -10 -3 0 -8 5 -11 10 -3 6 -1 10
4 10 6 0 11 -4 11 -10z m-77 -35 c-3 -9 -8 -14 -10 -11 -3 3 -2 9 2 15 9 16
15 13 8 -4z m-38 -54 c-3 -12 -11 -21 -16 -21 -18 0 -68 -43 -62 -53 3 -5 9
-3 14 4 4 7 11 11 14 8 3 -4 -16 -30 -42 -59 l-48 -53 -2 -96 c-1 -53 -4 -123
-7 -156 -2 -36 2 -77 10 -103 18 -56 18 -76 -1 -68 -10 4 -15 -1 -15 -14 0
-11 6 -19 13 -18 9 2 12 -46 14 -212 1 -118 -1 -228 -5 -245 l-6 -30 -7 25 -7
25 -1 -27 c-1 -16 -6 -28 -12 -28 -8 0 -10 17 -6 55 3 30 2 53 -2 50 -5 -2
-11 127 -15 288 -4 160 -9 353 -12 428 -5 128 -4 137 16 160 15 16 23 20 26
12 10 -23 24 -14 25 15 0 15 3 21 6 15 2 -7 9 -13 14 -13 4 0 6 7 3 15 -4 10
14 34 52 70 32 30 60 52 62 50 2 -2 1 -13 -3 -24z m2452 -58 c-2 -16 -4 -5 -4
22 0 28 2 40 4 28 2 -13 2 -35 0 -50z m-3225 -115 c15 -15 18 -50 22 -305 3
-158 7 -360 10 -448 5 -145 4 -156 -9 -115 -7 25 -13 37 -14 27 -1 -10 -5 -16
-9 -13 -4 3 -6 21 -4 40 2 20 8 33 13 30 5 -3 9 9 9 26 0 21 -4 29 -12 24 -8
-5 -9 0 -6 14 4 15 2 22 -8 22 -11 0 -14 20 -14 94 0 53 -4 98 -10 101 -6 4
-10 84 -10 206 0 220 -9 282 -46 306 -13 8 -24 22 -24 30 0 8 -4 12 -9 8 -5
-3 -12 -1 -16 5 -3 5 3 10 14 10 12 0 21 5 21 11 0 10 65 -36 102 -73z m-675
-290 c-3 -8 -6 -5 -6 6 -1 11 2 17 5 13 3 -3 4 -12 1 -19z m3883 -125 c-7 -24
-8 -21 -9 22 0 38 2 45 9 28 5 -12 5 -34 0 -50z m-3 -105 c-2 -13 -4 -3 -4 22
0 25 2 35 4 23 2 -13 2 -33 0 -45z m-2300 -10 c-2 -13 -4 -3 -4 22 0 25 2 35
4 23 2 -13 2 -33 0 -45z m1622 7 c-18 -24 -39 -52 -48 -62 -49 -54 -71 -119
-44 -126 12 -3 9 -5 -7 -6 -15 0 -31 -6 -38 -13 -21 -21 -24 0 -3 23 12 13 35
50 52 84 27 54 99 145 114 145 4 0 -8 -20 -26 -45z m-1622 -97 c-3 -7 -5 -2
-5 12 0 14 2 19 5 13 2 -7 2 -19 0 -25z m2293 -73 c0 -19 -4 -37 -10 -40 -6
-4 -10 12 -10 40 0 28 4 44 10 40 6 -3 10 -21 10 -40z m-662 -2 c-10 -2 -28
-2 -40 0 -13 2 -5 4 17 4 22 1 32 -1 23 -4z m-171 -105 c-3 -8 -6 -5 -6 6 -1
11 2 17 5 13 3 -3 4 -12 1 -19z m-66 -65 c1 -34 5 -67 10 -74 9 -15 0 -41 -12
-33 -5 3 -9 44 -9 91 0 98 8 109 11 16z m876 -40 c-2 -16 -4 -3 -4 27 0 30 2
43 4 28 2 -16 2 -40 0 -55z m-823 52 c-4 -8 -8 -15 -10 -15 -2 0 -4 7 -4 15 0
8 4 15 10 15 5 0 7 -7 4 -15z m-3080 -50 c-9 -14 -21 -25 -27 -25 -6 0 0 11
13 25 13 14 25 25 27 25 2 0 -4 -11 -13 -25z m-234 0 c0 -8 -2 -15 -4 -15 -2
0 -12 -3 -21 -6 -15 -6 -15 -4 -4 15 16 25 29 27 29 6z m3287 -27 c-3 -7 -5
-2 -5 12 0 14 2 19 5 13 2 -7 2 -19 0 -25z m-2290 -50 c-3 -7 -5 -2 -5 12 0
14 2 19 5 13 2 -7 2 -19 0 -25z m3130 -70 c-2 -13 -4 -3 -4 22 0 25 2 35 4 23
2 -13 2 -33 0 -45z m-3130 -120 c-3 -8 -6 -5 -6 6 -1 11 2 17 5 13 3 -3 4 -12
1 -19z m-10 -50 c-3 -7 -5 -2 -5 12 0 14 2 19 5 13 2 -7 2 -19 0 -25z m3128
-65 c-8 -75 -15 -80 -15 -11 0 49 5 68 17 68 3 0 2 -26 -2 -57z m-18 -210 c-3
-10 -5 -4 -5 12 0 17 2 24 5 18 2 -7 2 -21 0 -30z m-2469 -443 c9 -15 9 -20 0
-20 -6 0 -8 -3 -5 -6 15 -16 -15 -44 -47 -44 -41 0 -107 -22 -191 -65 l-65
-32 0 24 c0 64 70 133 155 154 17 4 55 7 85 8 45 1 57 -3 68 -19z m9 -343 l21
-34 -51 -18 c-72 -25 -209 -91 -239 -115 -30 -23 -38 -18 -38 28 0 39 23 92
51 118 30 27 118 53 179 54 51 0 56 -2 77 -33z m-4464 -1014 c-7 -2 -19 -2
-25 0 -7 3 -2 5 12 5 14 0 19 -2 13 -5z m5423 -28 c14 -13 13 -15 -3 -15 -15
0 -16 -2 -3 -10 8 -5 11 -10 6 -10 -15 0 -76 41 -76 52 0 15 58 2 76 -17z
m-5831 -1 c14 -6 13 -8 -5 -21 -13 -10 -20 -25 -20 -49 0 -36 -10 -43 -29 -20
-8 10 -9 16 -1 21 5 3 10 15 10 26 0 10 6 19 13 20 8 0 8 2 -2 6 -11 5 -11 7
0 14 17 11 14 10 34 3z m1637 -5 c2 -7 31 -11 73 -11 39 0 64 -2 57 -5 -8 -3
-4 -12 14 -26 24 -19 28 -19 38 -4 8 10 17 13 26 7 8 -5 18 -6 22 -3 5 2 16
-1 25 -9 10 -8 35 -12 70 -10 46 3 53 1 53 -15 1 -17 1 -17 15 1 14 18 15 14
15 -45 0 -35 -3 -74 -6 -87 l-6 -22 -24 25 c-21 23 -24 24 -33 7 -10 -16 -10
-16 -11 1 0 9 -7 17 -15 17 -8 0 -15 5 -15 10 0 6 -12 10 -26 10 -20 0 -24 3
-16 13 8 10 -10 12 -91 11 -135 -1 -135 -1 -142 -24 -9 -28 -18 -25 -33 10
-21 47 -36 37 -29 -20 3 -28 2 -48 -2 -46 -5 3 -11 -12 -15 -33 -3 -22 -12
-42 -18 -45 -10 -5 -10 -7 0 -12 6 -3 12 -12 12 -20 0 -8 6 -14 13 -15 10 0
10 -2 0 -6 -8 -2 -13 -22 -13 -44 0 -26 -7 -46 -20 -59 -11 -11 -20 -28 -20
-37 0 -15 -2 -16 -10 -3 -9 13 -11 13 -19 0 -6 -8 -12 -12 -15 -9 -7 7 22 269
33 294 5 11 14 56 20 100 17 115 17 115 56 115 18 0 35 -5 37 -11z m-1719
-109 c-3 -11 -7 -20 -9 -20 -2 0 -4 9 -4 20 0 11 4 20 9 20 5 0 7 -9 4 -20z
m2197 -190 c0 -5 -4 -10 -10 -10 -5 0 -10 5 -10 10 0 6 5 10 10 10 6 0 10 -4
10 -10z m-2626 -163 c-3 -27 -9 -46 -12 -43 -8 8 -11 107 -5 131 11 36 24 -34
17 -88z m-509 -27 c3 -5 1 -10 -4 -10 -6 0 -11 5 -11 10 0 6 2 10 4 10 3 0 8
-4 11 -10z m2502 -132 c-2 -13 -4 -5 -4 17 -1 22 1 32 4 23 2 -10 2 -28 0 -40z
m-2551 -5 c9 -35 -8 -59 -37 -55 -31 5 -49 20 -49 41 0 25 17 38 50 39 24 0
31 -4 36 -25z m3648 15 c2 -7 9 -44 16 -83 62 -365 88 -494 104 -525 9 -18 16
-45 16 -60 0 -29 44 -146 65 -170 12 -15 55 -106 55 -119 0 -17 -74 81 -97
129 -15 30 -35 66 -45 80 -24 34 -83 235 -112 389 -13 68 -29 127 -36 131 -6
4 -10 18 -9 31 2 13 -1 55 -5 92 -6 46 -5 77 3 93 11 25 39 33 45 12z m2181
-218 c3 -5 -1 -10 -9 -10 -9 0 -13 -6 -10 -13 3 -8 -16 -32 -43 -56 -89 -78
-136 -106 -157 -94 -13 7 -1 22 57 70 74 64 137 111 149 112 4 1 10 -3 13 -9z
m-25 -230 c0 -25 -79 -103 -126 -125 -18 -9 -36 -20 -39 -25 -8 -13 -25 -13
-25 -1 0 16 81 97 135 135 28 19 51 35 53 35 1 1 2 -8 2 -19z m-6496 -146 c21
-8 21 -68 -1 -89 -19 -20 -30 -7 -33 40 -4 58 -1 62 34 49z m7601 -13 c10 -18
-16 -23 -73 -16 -43 6 -52 9 -37 16 28 11 103 11 110 0z m-2385 -61 c0 -5 -11
-10 -25 -10 -14 0 -25 5 -25 10 0 6 11 10 25 10 14 0 25 -4 25 -10z m158 -7
c-4 -23 -59 -29 -110 -12 -54 18 -37 29 43 29 62 0 70 -2 67 -17z m1122 -2 c0
-29 -122 -121 -151 -114 -20 6 -20 6 0 24 11 11 22 19 25 19 3 0 24 18 46 40
38 37 80 53 80 31z m-1125 -198 c16 -15 16 -17 0 -26 -22 -12 -86 -2 -96 15
-17 28 70 38 96 11z m-744 -115 c11 -21 11 -22 -4 -9 -10 7 -17 17 -17 22 0
15 9 10 21 -13z m772 -97 c17 -17 1 -24 -53 -23 -61 1 -76 8 -58 29 14 17 92
13 111 -6z"/>
<path d="M7414 6860 c0 -69 1 -97 3 -62 2 34 2 90 0 125 -2 34 -3 6 -3 -63z"/>
<path d="M7401 6464 c0 -11 3 -14 6 -6 3 7 2 16 -1 19 -3 4 -6 -2 -5 -13z"/>
<path d="M9085 10514 c-22 -52 -16 -78 16 -82 39 -5 54 19 38 63 -21 58 -36
63 -54 19z"/>
<path d="M9054 9947 c-3 -8 -4 -54 -2 -103 l3 -89 37 -3 c74 -6 129 83 98 159
-7 17 -24 35 -37 40 -36 13 -93 11 -99 -4z"/>
<path d="M9095 9234 c-23 -56 -20 -64 23 -64 21 0 41 3 45 6 7 7 -34 94 -45
94 -4 0 -15 -16 -23 -36z"/>
<path d="M7420 6180 c0 -11 5 -20 10 -20 6 0 10 9 10 20 0 11 -4 20 -10 20 -5
0 -10 -9 -10 -20z"/>
<path d="M7352 6085 c-7 -8 -9 -15 -4 -15 5 0 15 7 22 15 16 19 -1 19 -18 0z"/>
<path d="M7270 5689 c0 -11 4 -18 10 -14 5 3 7 12 3 20 -7 21 -13 19 -13 -6z"/>
<path d="M7263 5420 c0 -30 2 -43 4 -27 2 15 2 39 0 55 -2 15 -4 2 -4 -28z"/>
<path d="M7282 5190 c0 -19 2 -27 5 -17 2 9 2 25 0 35 -3 9 -5 1 -5 -18z"/>
<path d="M6561 5734 c0 -11 3 -14 6 -6 3 7 2 16 -1 19 -3 4 -6 -2 -5 -13z"/>
<path d="M6636 5474 c-3 -26 -6 -76 -6 -113 0 -61 1 -64 15 -44 12 17 13 28 4
50 -6 17 -8 53 -4 91 8 72 1 85 -9 16z"/>
<path d="M6657 5103 c-6 -13 -2 -92 6 -99 4 -4 7 18 7 49 0 54 -3 67 -13 50z"/>
<path d="M4482 2220 c0 -19 2 -27 5 -17 2 9 2 25 0 35 -3 9 -5 1 -5 -18z"/>
<path d="M4022 2000 c0 -14 2 -19 5 -12 2 6 2 18 0 25 -3 6 -5 1 -5 -13z"/>
<path d="M5169 18871 c-16 -12 -30 -16 -44 -10 -35 14 -55 10 -80 -16 -28 -27
-32 -61 -10 -89 12 -16 20 -17 71 -8 43 7 65 6 88 -3 17 -7 53 -16 80 -20 96
-14 165 -57 326 -204 82 -76 159 -141 170 -144 14 -3 26 3 40 20 19 25 19 27
4 52 -23 35 -314 317 -376 363 -52 40 -157 78 -213 78 -18 0 -43 -8 -56 -19z"/>
<path d="M9800 18679 c0 -5 5 -7 10 -4 6 3 10 8 10 11 0 2 -4 4 -10 4 -5 0
-10 -5 -10 -11z"/>
<path d="M5167 18650 c-11 -7 -34 -9 -58 -5 -25 4 -45 3 -54 -5 -10 -8 -31
-10 -62 -5 -94 12 -123 9 -153 -20 -30 -29 -57 -96 -45 -115 11 -19 146 -6
185 16 25 15 34 16 50 6 23 -14 74 -16 99 -3 28 16 228 -35 294 -74 21 -12 81
-61 132 -109 53 -48 102 -86 114 -86 27 0 63 47 52 69 -5 9 -68 73 -140 143
-106 104 -143 134 -198 159 -74 34 -184 48 -216 29z"/>
<path d="M5177 18426 c-13 -10 -35 -12 -78 -9 -39 4 -59 2 -59 -5 0 -20 -41
-25 -61 -6 -16 14 -32 16 -113 11 -133 -8 -142 -15 -215 -182 -48 -111 -131
-356 -131 -386 0 -19 12 -39 38 -63 20 -20 42 -36 47 -36 6 0 26 -22 45 -49
32 -46 39 -50 88 -56 74 -10 262 -1 289 13 12 7 24 8 27 3 13 -20 66 5 95 47
17 23 38 42 47 42 9 0 95 80 191 178 211 214 223 228 223 254 0 29 -119 148
-191 191 -55 32 -94 44 -199 62 -14 3 -33 -2 -43 -9z"/>
<path d="M5900 18320 c0 -5 -7 -10 -15 -10 -8 0 -15 -7 -15 -16 0 -21 283
-304 305 -304 15 0 17 8 13 57 -5 56 -6 57 -88 136 -77 73 -174 147 -192 147
-5 0 -8 -4 -8 -10z"/>
<path d="M5750 18220 c-11 -11 -20 -26 -20 -34 0 -8 32 -43 72 -78 40 -35 137
-127 216 -205 80 -78 154 -144 164 -147 19 -4 20 -1 16 51 -5 55 -6 57 -89
137 -203 197 -312 296 -325 296 -8 0 -23 -9 -34 -20z"/>
<path d="M5665 18122 c-19 -3 -112 -92 -166 -158 -14 -18 -68 -78 -120 -134
-52 -56 -99 -112 -106 -123 -27 -48 -27 -48 213 -47 l225 1 42 -34 c23 -20 85
-75 137 -125 l94 -89 7 -134 c4 -74 8 -194 8 -266 l1 -133 -37 -42 c-21 -23
-51 -58 -68 -77 -16 -18 -44 -48 -61 -65 -49 -49 -54 -66 -32 -88 11 -11 25
-17 31 -15 7 2 17 -3 24 -12 10 -14 37 9 189 162 l177 179 -7 246 c-3 136 -9
295 -13 354 l-6 108 -77 77 c-129 131 -404 398 -420 409 -8 6 -24 9 -35 6z"/>
<path d="M6320 17900 c0 -56 3 -62 43 -107 49 -57 161 -153 176 -153 7 0 11
23 11 58 l0 57 -107 103 c-59 56 -111 102 -115 102 -4 0 -8 -27 -8 -60z"/>
<path d="M4475 17715 c-26 -71 -20 -81 50 -77 33 2 64 8 70 13 5 6 2 9 -10 9
-10 0 -16 3 -12 6 8 8 -40 72 -63 84 -15 8 -20 2 -35 -35z"/>
<path d="M6325 17699 c-4 -6 -1 -32 5 -57 11 -38 31 -65 109 -144 52 -54 99
-98 103 -98 5 0 8 28 8 62 l0 62 -96 93 c-94 90 -116 105 -129 82z"/>
<path d="M6677 17624 c-22 -23 4 -174 31 -174 4 0 28 -19 54 -42 49 -46 101
-87 126 -102 12 -7 14 0 10 47 -4 52 -8 59 -64 114 -32 32 -79 82 -104 111
-25 29 -49 50 -53 46z"/>
<path d="M5395 17549 c-175 -11 -236 -19 -230 -30 4 -5 -5 -9 -18 -9 -29 0
-67 -31 -67 -54 0 -9 -6 -29 -13 -44 -7 -15 -14 -43 -16 -63 -1 -19 -4 -44 -6
-55 -2 -10 -4 -24 -4 -31 -1 -6 -14 0 -30 15 -16 14 -45 27 -64 29 -30 3 -41
-3 -83 -45 -27 -26 -82 -87 -123 -136 -101 -120 -152 -158 -253 -190 -46 -14
-103 -26 -127 -28 -64 -4 -78 -28 -91 -162 -6 -61 -18 -142 -26 -180 -33 -154
-79 -934 -60 -1010 l6 -26 224 0 c264 0 235 -12 361 153 46 62 112 147 145
190 53 69 59 81 49 100 -28 55 -86 71 -155 42 -46 -19 -57 -11 -49 31 6 33 5
34 -30 34 -33 0 -35 2 -35 31 0 32 23 61 76 96 13 8 24 20 24 25 0 5 9 23 21
39 31 43 19 70 -67 155 -83 82 -164 134 -209 134 -17 0 -51 11 -76 25 -26 13
-59 23 -74 22 -16 -1 -30 4 -32 11 -3 7 4 12 15 12 12 0 27 7 36 15 8 8 21 12
29 9 10 -3 18 2 22 15 3 11 12 20 18 18 7 -1 11 9 10 25 -2 36 -23 32 365 68
56 5 112 14 123 21 12 6 30 31 41 56 l20 46 22 -26 c11 -14 27 -27 35 -29 21
-6 59 34 63 67 3 30 25 46 32 23 2 -7 9 -32 15 -55 14 -49 41 -79 82 -88 16
-4 35 -15 42 -25 7 -10 25 -24 40 -31 15 -7 27 -18 27 -26 0 -7 4 -13 10 -13
5 0 32 -22 59 -50 55 -55 74 -60 107 -29 19 18 21 25 12 48 -6 14 -10 36 -9
49 0 14 -5 22 -15 22 -8 0 -23 13 -32 30 -9 16 -21 30 -27 30 -11 0 -55 44
-55 55 0 3 -7 13 -15 21 -16 17 -20 44 -6 44 10 0 108 -79 160 -128 28 -27 40
-33 63 -28 15 3 28 1 28 -4 0 -6 4 -10 9 -10 14 0 165 159 178 188 9 20 11 80
7 227 l-5 200 -98 98 -98 97 -74 -1 c-41 -1 -132 -5 -204 -10z m-237 -342 c2
-10 -3 -17 -12 -17 -10 0 -16 9 -16 21 0 24 23 21 28 -4z m39 -61 c19 -39 20
-46 8 -62 -13 -17 -16 -17 -25 -4 -5 8 -10 25 -10 37 0 12 -8 26 -17 32 -14 8
-15 12 -4 25 20 23 25 20 48 -28z m220 -212 c-3 -3 -12 -4 -19 -1 -8 3 -5 6 6
6 11 1 17 -2 13 -5z"/>
<path d="M4840 17510 c-10 -6 -11 -10 -2 -10 6 0 12 -4 12 -10 0 -5 -11 -10
-25 -10 -16 0 -25 6 -25 16 0 14 -19 15 -182 9 -208 -8 -203 -5 -225 -99 -6
-28 -19 -78 -28 -111 -26 -101 -46 -197 -54 -258 -7 -56 -6 -59 17 -68 31 -12
85 -2 137 25 45 23 294 263 356 342 29 38 39 60 39 87 0 21 3 37 8 38 4 0 20
2 35 3 28 2 47 19 47 44 0 15 -87 17 -110 2z"/>
<path d="M6680 17320 l0 -61 63 -62 c67 -67 129 -117 146 -117 6 0 11 20 11
48 0 46 -2 49 -100 150 -55 56 -104 102 -110 102 -6 0 -10 -27 -10 -60z"/>
<path d="M7028 17255 c-3 -13 -2 -45 2 -72 6 -40 15 -54 51 -85 24 -21 73 -50
109 -65 l65 -28 330 2 c546 3 1050 12 1094 19 l41 7 0 67 c0 46 -4 71 -14 79
-10 8 -66 12 -178 12 -267 -1 -760 -11 -767 -15 -4 -3 -110 -5 -236 -7 -260
-2 -276 0 -406 66 l-87 44 -4 -24z"/>
<path d="M8793 17172 c-13 -22 -7 -120 8 -139 14 -16 111 -17 127 -1 7 7 12
40 12 79 0 77 -3 79 -83 79 -40 0 -55 -4 -64 -18z"/>
<path d="M7036 17025 c-8 -22 2 -82 19 -116 15 -28 108 -98 136 -103 8 -1 19
-4 24 -7 30 -18 106 -21 485 -20 573 0 1002 10 1017 23 16 13 17 86 3 123
l-10 27 -473 -6 c-259 -3 -568 -8 -686 -12 -155 -4 -231 -3 -275 7 -68 14
-152 48 -196 79 -34 24 -36 24 -44 5z"/>
<path d="M8823 16949 l-33 -10 0 -69 c0 -58 3 -71 19 -80 26 -14 118 -13 127
1 9 15 5 142 -5 152 -13 13 -74 17 -108 6z"/>
<path d="M11990 16848 c0 -9 5 -20 11 -23 17 -11 18 -2 3 19 -12 17 -14 17
-14 4z"/>
<path d="M4880 16640 c0 -5 -8 -10 -17 -10 -23 -1 -63 -34 -63 -53 0 -11 -7
-13 -22 -9 -20 5 -21 4 -9 -11 11 -14 11 -18 -2 -23 -22 -8 2 -52 49 -90 20
-16 44 -37 53 -46 29 -33 89 -15 116 36 19 36 18 123 -2 119 -12 -3 -18 17
-14 41 1 4 -1 16 -4 27 -5 16 -9 17 -26 6 -17 -10 -22 -9 -30 6 -11 18 -29 23
-29 7z"/>
<path d="M5308 16625 c-19 -16 -32 -42 -42 -86 -8 -34 -21 -66 -30 -71 -9 -5
-16 -18 -16 -28 0 -10 -9 -25 -20 -33 -10 -7 -24 -25 -29 -40 -9 -23 -7 -29
12 -41 41 -26 65 -28 112 -7 25 11 45 24 45 28 0 4 12 22 28 38 32 36 91 116
72 98 -19 -17 -35 -17 -21 0 6 8 8 17 4 20 -3 4 1 7 10 7 22 0 16 61 -9 86
-23 23 -70 54 -81 54 -4 0 -20 -11 -35 -25z"/>
<path d="M5691 16532 c-26 -38 -23 -80 10 -104 29 -22 54 -16 71 15 8 16 8 22
-1 25 -6 2 -9 8 -6 12 8 13 -17 50 -33 50 -9 0 -12 6 -8 15 9 25 -11 17 -33
-13z"/>
<path d="M5522 16352 c-90 -91 -106 -114 -97 -144 10 -33 35 -58 57 -58 20 0
143 112 179 163 l20 27 -21 30 c-12 17 -30 30 -40 30 -10 0 -20 6 -23 13 -2 7
-34 -19 -75 -61z"/>
<path d="M4990 16125 c0 -8 -7 -15 -15 -15 -8 0 -15 -5 -15 -10 0 -7 19 -10
45 -9 34 2 44 6 40 17 -3 7 -5 18 -5 23 0 5 -11 9 -25 9 -16 0 -25 -6 -25 -15z"/>
<path d="M5305 16000 c3 -5 8 -10 11 -10 2 0 4 5 4 10 0 6 -5 10 -11 10 -5 0
-7 -4 -4 -10z"/>
<path d="M5135 15893 c-40 -6 -62 -25 -161 -140 -47 -54 -108 -118 -135 -143
-27 -25 -49 -50 -49 -57 0 -8 29 -13 88 -15 l87 -3 70 65 c135 125 209 227
188 259 -6 9 -16 15 -22 14 -6 -2 -11 4 -11 12 0 8 -6 14 -12 14 -7 -1 -26 -4
-43 -6z"/>
<path d="M13320 15185 c0 -19 5 -35 10 -35 6 0 10 16 10 35 0 19 -4 35 -10 35
-5 0 -10 -16 -10 -35z"/>
<path d="M15050 14780 c-13 -9 -13 -12 3 -21 9 -5 26 -19 36 -30 25 -28 56
-21 56 11 0 21 -4 25 -28 22 -17 -2 -29 3 -33 13 -7 18 -13 18 -34 5z"/>
<path d="M13640 14540 c0 -29 4 -40 15 -40 11 0 15 11 15 40 0 29 -4 40 -15
40 -11 0 -15 -11 -15 -40z"/>
<path d="M14732 14488 c-16 -16 -15 -33 2 -47 11 -10 16 -8 21 8 9 29 -7 55
-23 39z"/>
<path d="M14866 14435 c-3 -8 -1 -15 4 -15 6 0 10 7 10 15 0 8 -2 15 -4 15 -2
0 -6 -7 -10 -15z"/>
<path d="M14778 14422 c-14 -3 -18 -13 -18 -43 0 -39 0 -39 40 -39 40 0 40 0
40 39 0 32 -4 39 -22 43 -13 2 -31 2 -40 0z"/>
<path d="M14546 14355 c-4 -10 1 -15 14 -15 13 0 18 5 14 15 -4 8 -10 15 -14
15 -4 0 -10 -7 -14 -15z"/>
<path d="M14706 14355 c-3 -8 -1 -15 4 -15 6 0 10 7 10 15 0 8 -2 15 -4 15 -2
0 -6 -7 -10 -15z"/>
<path d="M14600 14300 l0 -40 40 0 40 0 0 40 0 40 -40 0 -40 0 0 -40z"/>
<path d="M4217 13233 c5 -362 23 -887 32 -919 4 -16 3 -42 -2 -58 -6 -17 -6
-55 -2 -95 5 -36 7 -111 6 -166 -1 -55 3 -224 9 -375 6 -151 15 -381 20 -510
14 -355 39 -893 46 -998 4 -62 11 -95 19 -99 8 -2 47 32 91 79 43 46 113 118
156 160 l78 77 0 73 c0 40 -4 156 -10 258 -5 102 -15 284 -20 405 -25 538 -30
607 -47 636 -14 23 -15 31 -5 41 7 7 12 41 12 82 0 72 -22 129 -56 149 -24 14
-15 24 17 19 l31 -5 -7 229 c-3 126 -10 312 -16 414 -5 102 -9 254 -9 338 0
92 -4 162 -11 175 -15 29 -311 327 -324 327 -8 0 -10 -74 -8 -237z m313 -1584
c9 -15 8 -24 -1 -35 -25 -31 -80 3 -66 40 9 23 54 20 67 -5z m-162 -11 c-3 -7
-15 -15 -27 -16 -20 -3 -22 -2 -10 12 17 18 42 21 37 4z m172 -133 c19 -23 3
-57 -27 -53 -34 4 -51 31 -34 52 17 20 45 21 61 1z m-2 -147 c17 -17 15 -58
-4 -65 -36 -13 -68 33 -44 62 15 18 32 19 48 3z m17 -168 c17 -19 17 -22 3
-37 -24 -23 -68 -10 -68 21 0 41 34 50 65 16z m-4 -140 c37 -21 13 -78 -27
-63 -35 13 -42 34 -18 57 18 19 20 19 45 6z"/>
<path d="M5362 11230 c-1 -85 1 -192 5 -237 l6 -83 32 0 c21 0 42 9 60 25 23
23 26 31 20 63 -4 20 -13 41 -21 45 -8 5 -12 13 -9 18 4 5 -6 23 -22 39 l-28
30 -6 -27 c-5 -21 -7 -14 -9 27 -1 33 -5 47 -9 35 -3 -11 -8 34 -11 100 l-6
120 -2 -155z"/>
<path d="M5046 11145 c2 -121 6 -247 9 -280 2 -33 4 -76 5 -95 1 -31 2 -33 10
-12 9 21 0 241 -19 497 -7 88 -8 66 -5 -110z"/>
<path d="M5380 10801 c0 -71 1 -73 23 -67 12 4 34 9 49 12 32 7 42 31 29 67
-10 26 -50 45 -70 33 -5 -4 -14 2 -20 11 -8 14 -10 0 -11 -56z"/>
<path d="M5060 10637 c0 -31 5 -57 10 -57 11 0 13 10 10 60 -3 61 -20 58 -20
-3z"/>
<path d="M5380 10638 c0 -74 26 -93 68 -51 7 7 19 13 27 13 7 0 15 7 19 15 8
22 -38 63 -79 71 l-35 6 0 -54z"/>
<path d="M5200 10543 c-59 -8 -60 -10 -60 -184 0 -87 4 -160 8 -163 5 -3 37
24 71 58 l63 64 -4 100 c-3 91 -16 136 -37 130 -3 0 -22 -3 -41 -5z"/>
<path d="M5396 10523 c-6 -16 3 -566 10 -603 1 -8 3 -32 3 -53 1 -24 8 -43 21
-54 23 -20 27 -58 6 -66 -22 -8 -25 -51 -16 -220 8 -132 12 -164 29 -193 12
-19 21 -39 21 -44 0 -18 48 -60 69 -60 26 0 100 73 125 123 9 17 25 46 36 62
10 17 19 44 19 62 1 17 6 35 11 38 6 4 9 14 6 23 -46 162 -43 155 -96 190 -27
18 -60 32 -72 31 -13 -1 -32 -1 -42 -1 -20 2 -20 2 0 17 10 8 30 15 44 15 32
1 70 33 70 59 0 12 5 21 10 21 24 0 4 253 -22 287 -6 7 -12 40 -14 75 -4 57
-32 161 -58 217 -11 24 -65 63 -101 73 -11 3 -27 9 -36 12 -11 5 -19 1 -23
-11z"/>
<path d="M5234 10118 l-86 -86 6 -114 c3 -62 6 -178 5 -258 -1 -273 27 -364
145 -478 89 -87 106 -96 134 -76 31 22 28 55 -17 148 -43 89 -61 175 -62 303
-1 124 -12 183 -39 203 -23 17 -23 18 -3 24 14 5 22 18 27 47 6 38 -11 359
-20 368 -2 3 -43 -34 -90 -81z"/>
<path d="M4750 10039 c0 -5 5 -7 10 -4 6 3 10 8 10 11 0 2 -4 4 -10 4 -5 0
-10 -5 -10 -11z"/>
<path d="M4958 9860 l-117 -119 0 -108 c1 -128 -6 -236 -15 -251 -3 -6 3 -27
15 -46 19 -33 20 -41 9 -107 -7 -38 -9 -73 -6 -76 3 -4 7 2 8 13 1 10 5 -33 9
-96 4 -63 9 -155 13 -205 3 -49 11 -211 17 -360 6 -148 13 -304 15 -345 3 -41
9 -221 14 -400 6 -179 13 -357 16 -396 l6 -71 96 -89 c53 -49 140 -130 192
-180 157 -149 200 -188 226 -204 23 -14 26 -12 113 75 62 62 91 98 95 120 6
38 -12 592 -26 785 -5 80 -9 201 -9 270 1 69 -2 195 -8 282 -8 132 -13 164
-34 210 -23 50 -79 118 -98 118 -4 0 -10 8 -13 18 -3 9 -29 40 -57 67 -28 28
-61 61 -73 74 -11 13 -36 37 -53 55 -18 17 -33 35 -33 41 0 5 -23 34 -50 64
-28 30 -48 57 -45 59 3 3 31 -16 64 -41 33 -26 68 -47 80 -47 12 0 25 -11 33
-27 8 -17 23 -29 38 -31 14 -2 31 -9 38 -14 9 -8 12 -6 12 8 0 16 2 17 10 4 8
-11 9 -7 4 15 -3 17 -19 42 -34 56 -15 15 -31 36 -34 47 -4 11 -36 50 -72 87
-88 93 -153 222 -164 332 -16 145 -23 278 -21 378 2 119 -4 155 -27 155 -9 0
-70 -54 -134 -120z m137 -738 c-5 -6 -64 62 -65 73 0 6 16 -8 34 -30 19 -22
33 -42 31 -43z"/>
<path d="M5870 8760 c0 -5 -8 -10 -17 -11 -15 0 -15 -2 2 -9 11 -5 15 -9 9 -9
-15 -1 -5 -53 13 -66 8 -6 18 -38 23 -70 4 -33 13 -85 18 -115 6 -30 14 -71
17 -91 4 -25 12 -38 24 -42 16 -4 18 -12 14 -43 -2 -22 -11 -61 -20 -88 -13
-40 -15 -99 -14 -334 1 -157 4 -288 6 -292 2 -3 5 -70 6 -148 3 -126 5 -142
20 -142 10 0 19 3 21 8 2 4 21 19 44 35 22 15 55 43 74 62 32 33 34 40 35 103
0 37 -4 128 -8 202 -4 74 -12 241 -18 370 -15 366 -22 430 -46 477 -26 49
-136 169 -141 154 -6 -17 -22 -2 -22 19 0 11 -9 24 -20 30 -14 7 -20 7 -20 0z"/>
<path d="M5598 8746 c-25 -18 -23 -25 22 -113 39 -78 51 -127 65 -283 13 -148
24 -180 62 -180 13 0 23 5 23 10 0 6 6 10 13 10 20 0 56 62 66 113 9 52 -2
197 -19 242 -11 29 -26 49 -118 153 -56 64 -80 74 -114 48z"/>
<path d="M5776 8085 c-39 -39 -54 -60 -49 -72 5 -12 3 -14 -7 -8 -10 6 -12 2
-7 -16 4 -13 1 -55 -5 -94 -12 -81 8 -768 23 -773 5 -2 9 -10 9 -18 0 -23 52
11 111 73 l49 52 0 88 c0 98 -18 505 -24 568 -3 22 -8 88 -12 148 -5 79 -10
107 -20 107 -8 0 -38 -25 -68 -55z"/>
<path d="M4902 7560 c0 -14 2 -19 5 -12 2 6 2 18 0 25 -3 6 -5 1 -5 -13z"/>
<path d="M4911 7364 c0 -11 3 -14 6 -6 3 7 2 16 -1 19 -3 4 -6 -2 -5 -13z"/>
<path d="M5845 7071 c-54 -34 -102 -93 -110 -136 -4 -22 -4 -116 0 -210 l7
-170 79 -77 c127 -124 120 -127 113 59 -8 234 -23 494 -30 526 -7 32 -18 34
-59 8z"/>
<path d="M5614 6868 c-52 -41 -94 -81 -94 -91 0 -23 146 -164 158 -152 8 8 2
198 -7 232 -9 36 -22 38 -57 11z"/>
<path d="M10871 4111 c-8 -5 -23 -8 -33 -6 -10 2 -18 0 -18 -5 0 -14 29 -20
55 -10 26 10 139 7 168 -5 21 -9 22 1 3 21 -17 16 -151 20 -175 5z"/>
<path d="M9997 2593 c-4 -3 -7 -11 -7 -17 0 -6 5 -5 12 2 6 6 9 14 7 17 -3 3
-9 2 -12 -2z"/>
<path d="M1 2365 c0 -38 2 -45 9 -28 5 12 5 34 0 50 -7 24 -8 21 -9 -22z"/>
<path d="M1212 2383 c-6 -2 -10 -8 -7 -13 5 -8 -75 -24 -83 -15 -3 3 -11 -4
-19 -15 -8 -11 -21 -20 -29 -20 -16 0 -17 -11 -16 -123 1 -87 12 -106 65 -107
28 0 60 -14 85 -38 18 -17 38 -1 58 46 18 43 19 158 1 169 -7 4 -17 21 -22 38
-6 18 -20 32 -35 36 -19 5 -12 7 25 8 36 1 46 4 35 11 -8 5 -10 10 -5 10 6 0
3 5 -5 10 -16 10 -28 11 -48 3z"/>
</g>
</svg>
